<svg width="40" height="40" viewBox="0 0 40 40" fill="none" xmlns="http://www.w3.org/2000/svg">
<circle cx="20" cy="20" r="19.65" fill="white" fill-opacity="0.04" stroke="#575757" stroke-width="0.7"/>
<path d="M30 20C30.0017 21.3172 29.7423 22.6216 29.2369 23.8379C28.7315 25.0543 27.9901 26.1584 27.0555 27.0865C26.1285 28.0118 25.0283 28.7454 23.8177 29.2454C22.607 29.7453 21.3098 30.0017 20 30C14.477 30 9.99999 25.523 9.99999 20C9.9965 17.4359 10.9814 14.9691 12.75 13.1125C13.6832 12.1278 14.8075 11.3439 16.0541 10.8087C17.3007 10.2735 18.6434 9.99834 20 10C21.3098 9.99831 22.607 10.2547 23.8177 10.7547C25.0283 11.2546 26.1285 11.9882 27.0555 12.9135C27.9901 13.8416 28.7315 14.9457 29.2369 16.1621C29.7423 17.3784 30.0017 18.6829 30 20Z" stroke="#BABABA" stroke-width="2" stroke-linecap="round" stroke-linejoin="round"/>
<path d="M30 20C28.541 20 24.516 19.45 20.9135 21.0315C17 22.75 14.1665 25.416 12.9315 27.0735" stroke="#BABABA" stroke-width="2" stroke-linecap="round" stroke-linejoin="round"/>
<path d="M16.25 10.727C17.815 12.1715 21.23 15.849 22.5 19.5C23.77 23.151 24.24 27.64 24.53 28.9175" stroke="#BABABA" stroke-width="2" stroke-linecap="round" stroke-linejoin="round"/>
<path d="M10.077 18.75C11.966 18.864 16.9665 18.9665 20.1665 17.6C23.3665 16.2335 26.12 13.72 27.0645 12.9225M10.75 23.8065C11.6312 25.9395 13.2203 27.7036 15.25 28.802" stroke="#BABABA" stroke-width="2" stroke-linecap="round" stroke-linejoin="round"/>
<path d="M9.99999 20C9.9965 17.4359 10.9814 14.9691 12.75 13.1125C13.6832 12.1278 14.8075 11.3439 16.0541 10.8087C17.3007 10.2735 18.6434 9.99834 20 10M24 10.832C25.1388 11.3303 26.1749 12.0361 27.0555 12.9135C27.9901 13.8416 28.7315 14.9457 29.2369 16.1621C29.7423 17.3784 30.0017 18.6829 30 20C30 21.231 29.7775 22.4105 29.37 23.5M20 30C21.3098 30.0017 22.607 29.7453 23.8177 29.2454C25.0283 28.7454 26.1285 28.0118 27.0555 27.0865" stroke="#BABABA" stroke-width="2" stroke-linecap="round" stroke-linejoin="round"/>
</svg>
